<?xml version="1.0" encoding="UTF-8"?> <svg xmlns="http://www.w3.org/2000/svg" width="79" height="42" viewBox="0 0 79 42" fill="none"><path d="M7.15 19.225C11.4 19.225 13.675 16.375 13.675 12.475C13.675 8.55 11.35 5.7 7.15 5.7C2.95 5.7 0.625 8.55 0.625 12.475C0.625 16.4 2.9 19.225 7.15 19.225ZM7.15 15.85C5.575 15.85 4.55 14.85 4.55 12.475C4.55 10.125 5.55 9.075 7.15 9.075C8.75 9.075 9.75 10.1 9.75 12.475C9.75 14.85 8.75 15.85 7.15 15.85ZM15.0566 19H18.9066V11.75C18.9066 10.175 20.0066 9.2 21.3816 9.2C22.9066 9.2 23.5816 10.1 23.5816 11.6V19H27.4316V10.4C27.4316 7.5 25.4816 5.7 22.5816 5.7C20.8816 5.7 19.7316 6.325 19.0066 7.175H18.9066V0.5H15.0566V19ZM31.1307 4.6C32.6057 4.6 33.4557 3.75 33.4557 2.35C33.4557 0.975 32.6057 0.124999 31.1307 0.124999C29.6057 0.124999 28.8057 0.975 28.8057 2.35C28.8057 3.75 29.6057 4.6 31.1307 4.6ZM29.1807 19H33.0307V5.925H29.1807V19ZM40.6842 19.225C44.9342 19.225 47.2092 16.375 47.2092 12.475C47.2092 8.55 44.8842 5.7 40.6842 5.7C36.4842 5.7 34.1592 8.55 34.1592 12.475C34.1592 16.4 36.4342 19.225 40.6842 19.225ZM40.6842 15.85C39.1092 15.85 38.0842 14.85 38.0842 12.475C38.0842 10.125 39.0842 9.075 40.6842 9.075C42.2842 9.075 43.2842 10.1 43.2842 12.475C43.2842 14.85 42.2842 15.85 40.6842 15.85ZM7 41.225C8.225 41.225 9.25 41 9.65 40.85V37.65H9.4C9 37.8 8.575 37.875 8.15 37.875C7 37.875 6.475 37.35 6.475 36.125V31.2H9.6V27.925H6.475V24.5H6.225L2.8 25.2V27.925H0.5V31.2H2.625V37.05C2.625 39.425 3.975 41.225 7 41.225ZM11.5166 41H15.3666V33.75C15.3666 32.175 16.4666 31.2 17.8416 31.2C19.3666 31.2 20.0416 32.1 20.0416 33.6V41H23.8916V32.4C23.8916 29.5 21.9416 27.7 19.0416 27.7C17.3416 27.7 16.1916 28.325 15.4666 29.175H15.3666V22.5H11.5166V41ZM31.4906 41.225C35.0656 41.225 37.1406 39.15 37.4906 36.8H33.7656C33.5406 37.4 32.9156 38.1 31.4906 38.1C29.7406 38.1 28.9656 37.025 28.9406 35.5H37.6656V34.075C37.6656 30.525 35.4156 27.7 31.4156 27.7C27.1656 27.7 25.0156 30.775 25.0156 34.475C25.0156 38.225 27.3656 41.225 31.4906 41.225ZM28.9656 33.075C29.0406 31.825 29.7656 30.85 31.4156 30.85C32.9406 30.85 33.6656 31.825 33.7406 33.075H28.9656ZM54.3322 27.7C52.3822 27.7 51.1072 28.625 50.4322 29.475H50.3572C49.5822 28.325 48.2322 27.7 46.4572 27.7C44.7572 27.7 43.6072 28.325 42.8822 29.175H42.7822L42.4822 27.925H39.0322V41H42.8822V33.75C42.8822 32.175 43.8822 31.2 45.2572 31.2C46.7822 31.2 47.3072 32.1 47.3072 33.6V41H51.1072V33.75C51.1072 32.2 51.9072 31.2 53.2822 31.2C54.8072 31.2 55.3322 32.1 55.3322 33.6V41H59.1822V32.4C59.1822 29.5 57.2322 27.7 54.3322 27.7ZM66.7943 41.225C70.3693 41.225 72.4443 39.15 72.7943 36.8H69.0693C68.8443 37.4 68.2193 38.1 66.7943 38.1C65.0443 38.1 64.2693 37.025 64.2443 35.5H72.9693V34.075C72.9693 30.525 70.7193 27.7 66.7193 27.7C62.4693 27.7 60.3193 30.775 60.3193 34.475C60.3193 38.225 62.6693 41.225 66.7943 41.225ZM64.2693 33.075C64.3443 31.825 65.0693 30.85 66.7193 30.85C68.2443 30.85 68.9693 31.825 69.0443 33.075H64.2693ZM76.2109 41.225C77.6359 41.225 78.4609 40.375 78.4609 38.975C78.4609 37.6 77.6359 36.75 76.2109 36.75C74.7359 36.75 73.9609 37.6 73.9609 38.975C73.9609 40.375 74.7359 41.225 76.2109 41.225Z" fill="#111111"></path></svg> 